<svg width="25" height="25" viewBox="0 0 25 25" fill="none" xmlns="http://www.w3.org/2000/svg">
<path d="M22.5 17.7175V16.2432C22.5 15.249 22.1049 14.2956 21.4016 13.5926C20.6984 12.8897 19.7446 12.4947 18.75 12.4947H13.75V9.99579H17.5C18.4946 9.99579 19.4484 9.60087 20.1516 8.8979C20.8549 8.19494 21.25 7.24151 21.25 6.24737V3.74842C21.25 2.75428 20.8549 1.80085 20.1516 1.09789C19.4484 0.394922 18.4946 0 17.5 0H7.5C6.50544 0 5.55162 0.394922 4.84835 1.09789C4.14509 1.80085 3.75001 2.75428 3.75001 3.74842V6.24737C3.75001 7.24151 4.14509 8.19494 4.84835 8.8979C5.55162 9.60087 6.50544 9.99579 7.5 9.99579H11.25V12.4947H6.25C5.25544 12.4947 4.30162 12.8897 3.59836 13.5926C2.89509 14.2956 2.50001 15.249 2.50001 16.2432V17.7175C1.66599 18.0123 0.963064 18.5923 0.515468 19.3549C0.0678719 20.1176 -0.0955759 21.0139 0.0540131 21.8854C0.203602 22.7569 0.656596 23.5475 1.33293 24.1175C2.00927 24.6874 2.8654 25 3.75001 25C4.63461 25 5.49074 24.6874 6.16708 24.1175C6.84341 23.5475 7.29641 22.7569 7.446 21.8854C7.59559 21.0139 7.43214 20.1176 6.98454 19.3549C6.53695 18.5923 5.83402 18.0123 5 17.7175V16.2432C5 15.9118 5.1317 15.594 5.36612 15.3596C5.60054 15.1253 5.91848 14.9937 6.25 14.9937H11.25V17.7175C10.416 18.0123 9.71306 18.5923 9.26546 19.3549C8.81787 20.1176 8.65442 21.0139 8.80401 21.8854C8.9536 22.7569 9.40659 23.5475 10.0829 24.1175C10.7593 24.6874 11.6154 25 12.5 25C13.3846 25 14.2407 24.6874 14.9171 24.1175C15.5934 23.5475 16.0464 22.7569 16.196 21.8854C16.3456 21.0139 16.1821 20.1176 15.7345 19.3549C15.2869 18.5923 14.584 18.0123 13.75 17.7175V14.9937H18.75C19.0815 14.9937 19.3995 15.1253 19.6339 15.3596C19.8683 15.594 20 15.9118 20 16.2432V17.7175C19.166 18.0123 18.4631 18.5923 18.0155 19.3549C17.5679 20.1176 17.4044 21.0139 17.554 21.8854C17.7036 22.7569 18.1566 23.5475 18.8329 24.1175C19.5093 24.6874 20.3654 25 21.25 25C22.1346 25 22.9907 24.6874 23.6671 24.1175C24.3434 23.5475 24.7964 22.7569 24.946 21.8854C25.0956 21.0139 24.9321 20.1176 24.4845 19.3549C24.0369 18.5923 23.334 18.0123 22.5 17.7175ZM6.25 6.24737V3.74842C6.25 3.41704 6.3817 3.09923 6.61612 2.86491C6.85054 2.63059 7.16848 2.49895 7.5 2.49895H17.5C17.8315 2.49895 18.1495 2.63059 18.3839 2.86491C18.6183 3.09923 18.75 3.41704 18.75 3.74842V6.24737C18.75 6.57875 18.6183 6.89656 18.3839 7.13088C18.1495 7.3652 17.8315 7.49684 17.5 7.49684H7.5C7.16848 7.49684 6.85054 7.3652 6.61612 7.13088C6.3817 6.89656 6.25 6.57875 6.25 6.24737ZM3.75001 22.4905C3.50278 22.4905 3.2611 22.4172 3.05554 22.28C2.84998 22.1427 2.68977 21.9475 2.59516 21.7192C2.50055 21.4909 2.47579 21.2397 2.52402 20.9973C2.57226 20.7549 2.69131 20.5323 2.86612 20.3575C3.04094 20.1828 3.26367 20.0638 3.50614 20.0156C3.74862 19.9674 3.99995 19.9921 4.22836 20.0867C4.45677 20.1813 4.65199 20.3414 4.78934 20.5469C4.92669 20.7524 5 20.9939 5 21.2411C5 21.5724 4.86831 21.8902 4.63389 22.1246C4.39947 22.3589 4.08153 22.4905 3.75001 22.4905ZM12.5 22.4905C12.2528 22.4905 12.0111 22.4172 11.8055 22.28C11.6 22.1427 11.4398 21.9475 11.3452 21.7192C11.2505 21.4909 11.2258 21.2397 11.274 20.9973C11.3223 20.7549 11.4413 20.5323 11.6161 20.3575C11.7909 20.1828 12.0137 20.0638 12.2561 20.0156C12.4986 19.9674 12.7499 19.9921 12.9784 20.0867C13.2068 20.1813 13.402 20.3414 13.5393 20.5469C13.6767 20.7524 13.75 20.9939 13.75 21.2411C13.75 21.5724 13.6183 21.8902 13.3839 22.1246C13.1495 22.3589 12.8315 22.4905 12.5 22.4905ZM21.25 22.4905C21.0028 22.4905 20.7611 22.4172 20.5555 22.28C20.35 22.1427 20.1898 21.9475 20.0951 21.7192C20.0005 21.4909 19.9758 21.2397 20.024 20.9973C20.0722 20.7549 20.1913 20.5323 20.3661 20.3575C20.5409 20.1828 20.7637 20.0638 21.0061 20.0156C21.2486 19.9674 21.4999 19.9921 21.7283 20.0867C21.9568 20.1813 22.152 20.3414 22.2893 20.5469C22.4267 20.7524 22.5 20.9939 22.5 21.2411C22.5 21.5724 22.3683 21.8902 22.1339 22.1246C21.8995 22.3589 21.5815 22.4905 21.25 22.4905Z" fill="#2C6573"/>
</svg>
