<svg width="31" height="24" viewBox="0 0 31 24" fill="none" xmlns="http://www.w3.org/2000/svg">
<path d="M30.4762 4.66423H30.4485C29.9174 4.66762 29.8353 4.20604 29.8261 3.99293V0.646599C29.8261 0.290122 29.5353 0.000484309 29.1785 0.000484309H19.5894C17.1829 0.000484309 16.2857 0.88974 16.0629 1.16969L16.0017 1.25397L16.0013 1.25494L15.8114 1.51454C15.8109 1.51454 15.8109 1.51454 15.8109 1.51454C15.5566 1.86376 15.3347 1.71458 15.2279 1.60076L14.8648 1.14886L14.6856 0.933331C14.3837 0.617054 13.5972 0 12.0388 0H1.82296C1.46516 0 1.17485 0.289638 1.17485 0.646115V3.95031C1.17485 4.52813 0.860261 4.64486 0.667042 4.66375H0.522856C0.365563 4.67295 0 4.76449 0 5.43628V21.1799C0 21.5664 0.314102 21.8793 0.701026 21.8793H10.0246C12.9991 21.8793 14.2953 22.9991 14.6842 23.4277L14.906 23.7019H14.9065C14.9065 23.7019 15.5012 24.3727 16.128 23.7019L16.2586 23.5493V23.5507L16.26 23.5493L16.4256 23.3556C16.4304 23.3497 16.4707 23.3052 16.528 23.2461C17.0251 22.7642 18.2655 21.8793 20.6909 21.8793H30.2995C30.6869 21.8793 31 21.5664 31 21.1799V5.28371C31.0005 4.71509 30.5864 4.66714 30.4762 4.66423ZM28.3813 18.7102C28.3813 19.0202 28.1216 19.2716 27.7983 19.2716H19.8933C17.08 19.2716 16.0585 20.5386 16.0585 20.5386L15.9289 20.712L15.8682 20.7968C15.8677 20.7968 15.8677 20.7968 15.8677 20.7968C15.5993 21.16 15.2051 20.7997 15.2031 20.7968L15.0211 20.5701C14.8861 20.4088 13.8525 19.2711 11.3519 19.2711H3.20074C2.87887 19.2711 2.61914 19.0192 2.61914 18.7097V1.93205C2.61914 1.62207 2.87935 1.37166 3.20074 1.37166H9.52842C14.2356 1.37166 14.6812 4.03894 14.7118 4.81341V16.4822C14.7118 17.3303 15.1167 17.4887 15.3454 17.5119H15.6857C15.9182 17.4887 16.2887 17.3507 16.2887 16.69V4.66375H16.2843C16.3202 3.69361 16.6989 1.37166 19.5302 1.37166H27.7983C28.1216 1.37166 28.3813 1.62207 28.3813 1.93205V18.7102Z" fill="#2C6573"/>
</svg>
