<svg width="28" height="22" viewBox="0 0 28 22" fill="none" xmlns="http://www.w3.org/2000/svg">
<path d="M0.875 18.6154H11.375C11.8597 18.6154 12.25 18.3311 12.25 17.9808V16.7115C12.25 16.3612 11.8597 16.0769 11.375 16.0769H0.875C0.391125 16.0769 0 16.3612 0 16.7115V17.9808C0 18.3311 0.391125 18.6154 0.875 18.6154ZM0.875 22H11.375C11.8597 22 12.25 21.7157 12.25 21.3654V20.0962C12.25 19.7458 11.8597 19.4615 11.375 19.4615H0.875C0.391125 19.4615 0 19.7458 0 20.0962V21.3654C0 21.7157 0.391125 22 0.875 22ZM0.875 15.2308H11.375C11.8597 15.2308 12.25 14.9465 12.25 14.5962V13.3269C12.25 12.9766 11.8597 12.6923 11.375 12.6923H0.875C0.391125 12.6923 0 12.9766 0 13.3269V14.5962C0 14.9465 0.391125 15.2308 0.875 15.2308ZM13.9615 14.8948C13.9764 14.7958 14 14.7011 14 14.5962V13.3269C14 12.0213 12.8485 11 11.375 11H7.875C7.875 8.66208 9.83325 6.76923 12.25 6.76923C14.6676 6.76923 16.625 8.66208 16.625 11C16.625 12.7473 15.526 14.2492 13.9615 14.8948ZM0 3.38462H24.5V18.6154H13.8967C13.958 18.4148 14 18.2033 14 17.9808V16.9231H19.25C19.25 15.0539 20.8171 13.5385 22.75 13.5385V8.46154C20.8171 8.46154 19.25 6.94608 19.25 5.07692H5.25C5.25 6.94608 3.68288 8.46154 1.75 8.46154V11H0.875C0.56525 11 0.27475 11.0533 0 11.1371V3.38462ZM28 0V16.9231H26.25V1.69231H1.75V0H28Z" fill="#2C6573"/>
</svg>
