<svg width="17" height="17" viewBox="0 0 17 17" fill="none" xmlns="http://www.w3.org/2000/svg">
<path d="M9.91634 1.41699H4.24967C3.87395 1.41699 3.51362 1.56625 3.24794 1.83192C2.98226 2.0976 2.83301 2.45794 2.83301 2.83366V14.167C2.83301 14.5427 2.98226 14.9031 3.24794 15.1687C3.51362 15.4344 3.87395 15.5837 4.24967 15.5837H12.7497C13.1254 15.5837 13.4857 15.4344 13.7514 15.1687C14.0171 14.9031 14.1663 14.5427 14.1663 14.167V5.66699L9.91634 1.41699Z" stroke="#2C6573" stroke-linecap="round" stroke-linejoin="round"/>
<path d="M9.91699 1.41699V5.66699H14.167" stroke="#2C6573" stroke-linecap="round" stroke-linejoin="round"/>
<path d="M11.3337 9.20801H5.66699" stroke="#2C6573" stroke-linecap="round" stroke-linejoin="round"/>
<path d="M11.3337 12.042H5.66699" stroke="#2C6573" stroke-linecap="round" stroke-linejoin="round"/>
<path d="M7.08366 6.375H6.37533H5.66699" stroke="#2C6573" stroke-linecap="round" stroke-linejoin="round"/>
</svg>
